<?xml version="1.0" standalone="no"?>
<!DOCTYPE svg PUBLIC "-//W3C//DTD SVG 20010904//EN"
 "http://www.w3.org/TR/2001/REC-SVG-20010904/DTD/svg10.dtd">
<svg version="1.0" xmlns="http://www.w3.org/2000/svg"
 width="902.000000pt" height="219.000000pt" viewBox="0 0 902.000000 219.000000"
 preserveAspectRatio="xMidYMid meet">

<g transform="translate(0.000000,219.000000) scale(0.100000,-0.100000)"
fill="#000000" stroke="none">
<path d="M2240 1100 c0 -620 3 -940 10 -940 7 0 10 320 10 940 0 620 -3 940
-10 940 -7 0 -10 -320 -10 -940z"/>
<path d="M623 1758 c-5 -7 -22 -61 -37 -121 -44 -172 -46 -176 -69 -189 -12
-6 -78 -24 -146 -39 -68 -16 -128 -32 -133 -37 -5 -5 -8 -20 -6 -33 3 -21 15
-26 141 -54 92 -21 144 -38 156 -51 11 -11 32 -75 51 -152 18 -73 39 -140 47
-148 34 -34 47 -14 88 140 20 76 41 147 48 157 8 13 45 26 127 45 172 38 180
42 180 69 0 13 -4 26 -9 29 -5 4 -69 20 -143 36 -79 18 -140 38 -150 48 -9 9
-31 72 -47 139 -17 67 -35 133 -41 147 -10 28 -41 35 -57 14z"/>
<path d="M8544 1591 c-60 -26 -73 -113 -25 -162 43 -43 92 -40 138 6 31 31 35
40 30 72 -11 66 -84 109 -143 84z"/>
<path d="M3063 1492 c-6 -4 -20 -52 -30 -107 l-18 -100 -55 -10 c-49 -9 -55
-13 -58 -37 -6 -48 13 -68 63 -68 l44 0 3 -234 c3 -219 4 -236 24 -262 42 -58
69 -69 157 -69 69 0 89 4 125 24 23 14 42 28 42 31 0 4 -13 25 -30 48 l-30 41
-36 -15 c-45 -19 -79 -7 -94 32 -6 14 -10 111 -10 215 l0 189 95 0 95 0 0 55
0 54 -92 3 -93 3 -3 108 -3 107 -42 0 c-23 0 -47 -4 -54 -8z"/>
<path d="M8012 1299 c-55 -9 -140 -46 -181 -77 -23 -18 -23 -20 -7 -51 28 -53
53 -58 124 -22 46 23 75 31 116 31 70 0 104 -26 117 -90 17 -89 21 -85 -88
-97 -213 -24 -315 -93 -315 -213 0 -109 71 -173 192 -173 78 0 115 12 183 60
42 29 48 31 53 16 20 -63 44 -78 107 -66 l27 5 0 232 c0 258 -7 304 -60 368
-55 67 -157 96 -268 77z m176 -443 c4 -65 -11 -91 -72 -121 -86 -43 -166 -29
-186 31 -22 67 31 113 150 133 98 16 105 13 108 -43z"/>
<path d="M3609 1286 c-49 -13 -128 -56 -148 -80 -11 -13 -10 -21 6 -48 25 -44
53 -46 122 -11 78 39 159 40 198 1 22 -23 28 -38 31 -91 l4 -64 -83 -6 c-101
-6 -201 -36 -256 -76 -82 -60 -95 -176 -28 -250 73 -81 211 -83 326 -5 52 34
68 34 69 -3 0 -26 32 -43 82 -43 l50 0 -4 253 c-4 282 -9 308 -79 374 -63 59
-179 79 -290 49z m209 -453 l-3 -67 -47 -30 c-38 -23 -59 -29 -105 -29 -49 0
-60 4 -80 27 -13 15 -23 38 -23 51 0 36 44 81 92 93 66 17 80 20 126 21 l43 1
-3 -67z"/>
<path d="M4283 1290 c-51 -12 -120 -57 -143 -94 -33 -54 -37 -125 -10 -180 25
-54 70 -84 177 -120 39 -13 80 -29 91 -35 60 -32 68 -77 23 -122 -26 -25 -37
-29 -86 -29 -40 0 -70 7 -107 26 -62 31 -87 27 -113 -21 l-19 -37 24 -19 c38
-29 145 -59 211 -59 157 0 262 88 263 221 1 76 -33 121 -120 160 -35 16 -69
29 -76 29 -31 0 -119 51 -130 75 -16 36 3 72 49 91 43 18 95 13 160 -16 52
-23 61 -20 91 25 l22 35 -46 29 c-70 45 -175 62 -261 41z"/>
<path d="M5600 1291 c-87 -27 -166 -96 -203 -180 -29 -64 -35 -189 -12 -267
29 -102 84 -169 170 -209 123 -57 305 -33 397 52 l27 26 -26 33 c-31 41 -48
42 -116 7 -41 -21 -66 -27 -117 -27 -78 0 -120 19 -155 72 -24 37 -49 129 -36
136 3 2 105 4 226 5 155 2 222 6 228 14 4 7 6 41 3 77 -11 123 -86 224 -190
255 -52 16 -154 19 -196 6z m178 -121 c32 -20 71 -86 72 -122 0 -16 -14 -18
-160 -18 -179 0 -176 -1 -141 68 33 66 74 90 151 91 28 1 57 -7 78 -19z"/>
<path d="M6295 1283 c-136 -49 -207 -160 -208 -323 0 -157 59 -262 181 -322
61 -30 74 -33 157 -32 102 1 177 24 235 73 l35 29 -21 28 c-35 48 -46 50 -112
21 -76 -34 -110 -41 -167 -32 -66 9 -120 60 -141 132 -9 30 -14 60 -11 67 4 9
59 13 223 15 120 1 222 5 226 7 4 3 8 32 8 64 0 114 -58 213 -153 262 -58 30
-183 35 -252 11z m207 -118 c31 -23 58 -75 58 -110 l0 -25 -159 0 -160 0 9 31
c15 53 44 93 80 112 46 24 135 19 172 -8z"/>
<path d="M7082 1280 c-18 -11 -47 -41 -65 -66 l-32 -46 -7 47 c-11 75 -11 75
-78 75 l-60 0 0 -340 0 -340 75 0 75 0 0 213 c0 204 1 214 23 250 36 59 71 77
148 77 l66 0 7 67 c5 49 4 68 -6 74 -25 16 -112 10 -146 -11z"/>
<path d="M4650 1283 c0 -5 59 -158 132 -340 l131 -333 73 0 72 0 134 338 134
337 -63 3 c-34 2 -71 -1 -80 -7 -18 -9 -166 -397 -179 -469 -9 -46 -21 -48
-29 -6 -6 35 -115 348 -149 429 -9 21 -22 43 -29 47 -16 10 -147 10 -147 1z"/>
<path d="M8510 950 l0 -341 78 3 77 3 3 338 2 337 -80 0 -80 0 0 -340z"/>
<path d="M1277 1273 c-3 -5 -17 -55 -33 -113 -15 -58 -34 -113 -42 -122 -8
-10 -55 -26 -114 -40 -164 -36 -166 -63 -8 -98 52 -12 104 -27 115 -34 15 -10
27 -41 45 -116 13 -56 30 -109 36 -118 23 -30 47 -2 67 79 38 154 36 150 70
163 18 7 72 21 120 31 141 29 131 59 -31 95 -56 13 -107 29 -113 36 -5 7 -21
54 -35 106 -13 51 -28 103 -34 116 -9 21 -34 30 -43 15z"/>
<path d="M7320 1015 l0 -65 170 0 170 0 0 65 0 65 -170 0 -170 0 0 -65z"/>
<path d="M800 748 c-34 -132 -40 -148 -63 -153 -12 -3 -51 -11 -86 -19 -34 -8
-65 -17 -68 -20 -16 -16 13 -33 73 -45 100 -19 109 -27 130 -115 10 -42 21
-81 25 -87 16 -26 36 3 53 76 10 42 26 85 35 94 9 9 50 23 90 31 71 13 99 33
72 50 -7 4 -44 13 -83 20 -82 16 -88 23 -116 130 -23 91 -45 104 -62 38z"/>
</g>
</svg>
